<svg width="600" height="800" viewBox="0 0 600 800" fill="none" xmlns="http://www.w3.org/2000/svg">
  <!-- Phone Frame -->
  <rect x="50" y="50" width="500" height="700" rx="40" fill="#2C3E50"/>
  <rect x="70" y="90" width="460" height="660" rx="20" fill="#FFFFFF"/>
  
  <!-- Status Bar -->
  <rect x="90" y="110" width="420" height="30" fill="#F8F9FA"/>
  
  <!-- Header -->
  <rect x="90" y="160" width="420" height="60" rx="8" fill="#E84339"/>
  <text x="300" y="200" font-family="Arial" font-size="24" fill="#FFFFFF" text-anchor="middle" font-weight="bold">theprote.in</text>
  
  <!-- Menu Items -->
  <rect x="110" y="250" width="380" height="80" rx="8" fill="#F8F9FA"/>
  <rect x="130" y="270" width="200" height="20" rx="4" fill="#E1E8ED"/>
  <rect x="130" y="300" width="300" height="15" rx="3" fill="#E1E8ED"/>
  
  <rect x="110" y="350" width="380" height="80" rx="8" fill="#F8F9FA"/>
  <rect x="130" y="370" width="180" height="20" rx="4" fill="#E1E8ED"/>
  <rect x="130" y="400" width="280" height="15" rx="3" fill="#E1E8ED"/>
  
  <rect x="110" y="450" width="380" height="80" rx="8" fill="#F8F9FA"/>
  <rect x="130" y="470" width="220" height="20" rx="4" fill="#E1E8ED"/>
  <rect x="130" y="500" width="260" height="15" rx="3" fill="#E1E8ED"/>
  
  <!-- Floating QR Code -->
  <rect x="420" y="600" width="120" height="120" rx="8" fill="#FFFFFF" stroke="#E84339" stroke-width="4"/>
  <rect x="435" y="615" width="90" height="90" fill="#2C3E50"/>
  <text x="480" y="680" font-family="Arial" font-size="12" fill="#FFFFFF" text-anchor="middle">QR</text>
</svg>